Coordinates
version=1
nRows=8
nColumns=42
inDegrees=yes

Units are S.I. units (second, meters, Newtons, ...)
If the header above contains a line with 'inDegrees', this indicates whether rotational values are in degrees (yes) or radians (no).

endheader
time	pelvis_tilt	pelvis_list	pelvis_rotation	pelvis_tx	pelvis_ty	pelvis_tz	hip_flexion_r	hip_adduction_r	hip_rotation_r	knee_angle_r	knee_angle_r_beta	ankle_angle_r	subtalar_angle_r	mtp_angle_r	hip_flexion_l	hip_adduction_l	hip_rotation_l	knee_angle_l	knee_angle_l_beta	ankle_angle_l	subtalar_angle_l	mtp_angle_l	lumbar_extension	lumbar_bending	lumbar_rotation	sh_tx_r	sh_ty_r	sh_tz_r	sh_plane_elev_r	sh_elev_r	sh_axial_rot_r	elbow_flex_r	pro_sup_r	sh_tx_l	sh_ty_l	sh_tz_l	sh_plane_elev_l	sh_elev_l	sh_axial_rot_l	elbow_flex_l	pro_sup_l
      6.08474580	     -3.24376370	     -0.18025222	     -0.10410319	      0.30719234	      0.93190819	      0.01180524	     -1.52139285	     -4.78873719	    -10.29324309	      0.49624486	      0.00866111	     -0.62091464	    -12.71567441	     -7.49999987	      0.65869828	     -4.10776743	    -10.78210321	      1.69719316	      0.02962161	      7.42676331	     -2.11094939	     -7.49999987	      0.64422707	      0.31674299	     -3.19751331	      0.00847737	     -0.01818014	     -0.00445572	     12.04711810	      5.81244723	      1.52228138	     27.94825608	     75.53919878	     -0.00121275	     -0.01776806	     -0.00420040	      3.15972334	      3.49296626	     -1.36663858	     24.72903904	     68.35934171
      6.10169490	     -3.21311906	     -0.19830695	     -0.10703023	      0.30702949	      0.93154016	      0.01193804	     -1.47501318	     -4.74481015	    -10.26720170	      0.47706881	      0.00832642	     -0.61829573	    -12.69826976	     -7.49999987	      0.68058679	     -4.17179009	    -10.80507704	      1.69059094	      0.02950638	      7.37244845	     -2.09967576	     -7.49999987	      0.54928840	      0.29280832	     -3.21490395	      0.00859116	     -0.01822688	     -0.00451276	     12.04540529	      5.79659319	      1.52317521	     27.92504976	     75.54075656	     -0.00081972	     -0.01777683	     -0.00412274	      3.16363680	      3.52058882	     -1.36280069	     24.73138394	     68.36342839
      6.11864410	     -2.93992630	     -0.23651363	     -0.10298851	      0.30683292	      0.93145706	      0.01171598	     -1.74330442	     -4.67488947	    -10.34906530	      0.45765625	      0.00798761	     -0.58959552	    -12.51341479	     -7.49999987	      0.40489552	     -4.25519701	    -10.92399294	      1.62008327	      0.02827579	      7.13290789	     -1.94390410	     -7.49999987	      0.13244683	      0.31962372	     -3.38708566	      0.00952614	     -0.01824739	     -0.00452219	     12.22005915	      5.76950747	      1.42145453	     27.93123108	     75.17110034	     -0.00100833	     -0.01779421	     -0.00414029	      3.70155642	      3.71629614	     -1.26637816	     25.04275290	     68.23559391
      6.13559320	     -2.86557112	     -0.27709939	     -0.13891012	      0.30261170	      0.93106249	      0.01666477	     -1.72132908	     -4.54025281	    -10.29381050	      0.42584532	      0.00743240	     -0.45249178	    -12.52728185	     -7.49999987	      0.43157959	     -4.38308389	    -11.01936138	      1.65640541	      0.02890973	      7.04519204	     -1.92305335	     -7.49999987	     -0.06538014	      0.28490706	     -3.41545491	      0.01017991	     -0.01827139	     -0.00456388	     12.71593863	      5.72302355	      1.05474102	     27.92098957	     73.71141587	     -0.00031749	     -0.01775927	     -0.00412913	      4.96810188	      4.02115277	     -1.59167322	     25.37902222	     67.42172062
      6.15254240	     -2.76351228	     -0.30145482	     -0.11333279	      0.30242228	      0.93071566	      0.01633738	     -1.75278542	     -4.42514142	    -10.31805007	      0.39312073	      0.00686125	     -0.27705467	    -12.37262611	     -7.49999987	      0.42051369	     -4.49816459	    -11.14806657	      1.65593373	      0.02890150	      6.92800634	     -1.78059065	     -7.49999987	     -0.36270962	      0.22816636	     -3.52573939	      0.01059285	     -0.01829400	     -0.00463956	     12.97895259	      5.69175430	      0.93164132	     28.08764287	     73.35929008	      0.00007559	     -0.01772605	     -0.00405538	      5.56073429	      4.28288791	     -1.51032985	     25.93602002	     67.28590643
      6.16949150	     -2.66923954	     -0.26675470	     -0.08772958	      0.30626465	      0.93053967	      0.01155034	     -1.85931135	     -4.46592325	    -10.36945842	      0.37077249	      0.00647120	     -0.29751362	    -12.53963762	     -7.49999987	      0.40383383	     -4.50361456	    -11.31064554	      1.74155048	      0.03039579	      6.97590587	     -1.47795506	     -7.49999987	     -0.51283154	      0.24003070	     -3.44150844	      0.00985932	     -0.01830795	     -0.00466223	     13.85563641	      5.69272889	      0.15444415	     27.72643510	     70.66712435	      0.00070877	     -0.01772316	     -0.00413476	      8.37570357	      4.61923968	     -2.49914204	     26.20411410	     65.44444226
      6.18644070	     -2.44840123	     -0.28227204	     -0.13541281	      0.30203624	      0.93048398	      0.01610285	     -2.03474594	     -4.39840099	    -10.45041670	      0.35488835	      0.00619397	      0.07891511	    -12.26268623	     -7.49999987	      0.23002251	     -4.57043573	    -11.44191307	      1.74831189	      0.03051380	      7.03929823	     -1.42707780	     -7.49999987	     -0.89675578	      0.21382977	     -3.61373583	      0.01105517	     -0.01831218	     -0.00483067	     14.42188367	      5.74335789	      0.29616686	     27.84179785	     69.83667811	      0.00085626	     -0.01765264	     -0.00419248	      9.52214375	      4.96232084	     -2.43901939	     26.75667055	     64.98197177
      6.20338980	     -2.57235048	     -0.30153952	     -0.08539606	      0.30203082	      0.93016271	      0.01606742	     -1.85698298	     -4.32995002	    -10.51170185	      0.34534816	      0.00602746	     -0.01260294	    -12.30169409	     -7.49999987	      0.48209000	     -4.65734767	    -11.43776638	      1.85194123	      0.03232247	      6.92039140	     -1.34688007	     -7.49999987	     -0.92162778	      0.24480437	     -3.75679841	      0.01039681	     -0.01837437	     -0.00484203	     14.58534851	      5.71072437	      0.24666807	     28.16520180	     69.71928305	      0.00048538	     -0.01771265	     -0.00401516	      9.93190215	      5.10629207	     -2.34207712	     27.72329483	     64.96004275
